<?xml version="1.0" encoding="UTF-8"?>
<!DOCTYPE svg PUBLIC "-//W3C//DTD SVG 1.1//EN" "http://www.w3.org/Graphics/SVG/1.1/DTD/svg11.dtd"><svg version="1.1" viewBox="0 0 21000 15500" preserveAspectRatio="xMidYMid" fill-rule="evenodd" xmlns="http://www.w3.org/2000/svg" xmlns:xlink="http://www.w3.org/1999/xlink"><g visibility="visible" id="Standard"><desc>Master slide</desc></g><g visibility="visible" id="page1"><desc>Slide</desc><g><desc>Group</desc><g><desc>Drawing</desc><g><g style="stroke:none;fill:rgb(255,255,255)"><path d="M 508,508 L 20008,508 20008,15008 508,15008 508,508 Z"/></g><g style="stroke:none;fill:rgb(0,0,0)"><path d="M 10258,15108 L 508,15108 508,15008 508,14908 10258,14908 10258,15008 10258,15108 Z"/><path d="M 508,15008 L 508,15108 491,15106 474,15102 458,15095 444,15085 431,15072 421,15058 414,15042 410,15025 408,15008 408,15008 508,15008 Z"/><path d="M 408,15008 L 408,508 508,508 608,508 608,15008 508,15008 408,15008 Z"/><path d="M 508,508 L 408,508 410,491 414,474 421,458 431,444 444,431 458,421 474,414 491,410 508,408 508,408 508,508 Z"/><path d="M 508,408 L 20008,408 20008,508 20008,608 508,608 508,508 508,408 Z"/><path d="M 20008,508 L 20008,408 20025,410 20042,414 20058,421 20072,431 20085,444 20095,458 20102,474 20106,491 20108,508 20108,508 20008,508 Z"/><path d="M 20108,508 L 20108,15008 20008,15008 19908,15008 19908,508 20008,508 20108,508 Z"/><path d="M 20008,15008 L 20108,15008 20106,15025 20102,15042 20095,15058 20085,15072 20072,15085 20058,15095 20042,15102 20025,15106 20008,15108 20008,15108 20008,15008 Z"/><path d="M 20008,15108 L 10258,15108 10258,15008 10258,14908 20008,14908 20008,15008 20008,15108 Z"/></g><g/></g></g><g><desc>Drawing</desc><g><g style="stroke:none;fill:rgb(0,0,0)"><path d="M 568,428 L 20068,14883 19948,15043 448,588 568,428 Z"/></g><g/></g></g><g><desc>Drawing</desc><g><g style="stroke:none;fill:rgb(0,0,0)"><path d="M 448,14928 L 19948,428 20068,588 568,15088 448,14928 Z"/></g><g/></g></g><g><desc>Drawing</desc><g><g style="stroke:none;fill:rgb(153,204,255)"><path d="M 4262,8508 L 4134,8503 4009,8488 3889,8463 3774,8429 3665,8387 3561,8337 3465,8280 3376,8215 3295,8144 3222,8067 3159,7985 3107,7897 3064,7805 3034,7709 3014,7610 3008,7508 3014,7406 3034,7307 3064,7211 3107,7119 3159,7031 3222,6949 3295,6872 3376,6801 3465,6736 3561,6679 3665,6629 3774,6587 3889,6553 4009,6528 4134,6513 4262,6508 4390,6513 4515,6528 4635,6553 4750,6587 4859,6629 4963,6679 5059,6736 5149,6801 5229,6872 5302,6949 5365,7031 5417,7119 5460,7211 5491,7307 5510,7406 5516,7508 5510,7610 5491,7709 5460,7805 5417,7897 5365,7985 5302,8067 5229,8144 5149,8215 5059,8280 4963,8337 4859,8387 4750,8429 4635,8463 4515,8488 4390,8503 4262,8508 Z"/></g><g style="stroke:none;fill:rgb(0,0,0)"><path d="M 4258,8608 L 4130,8603 4134,8503 4138,8403 4266,8408 4262,8508 4258,8608 Z"/><path d="M 4134,8503 L 4130,8603 4122,8602 4134,8503 Z"/><path d="M 4122,8602 L 3997,8587 4009,8488 4022,8388 4146,8404 4134,8503 4122,8602 Z"/><path d="M 4009,8488 L 3997,8587 3989,8586 4009,8488 Z"/><path d="M 3989,8586 L 3869,8561 3889,8463 3909,8365 4030,8390 4009,8488 3989,8586 Z"/><path d="M 3889,8463 L 3869,8561 3861,8559 3889,8463 Z"/><path d="M 3861,8559 L 3746,8525 3774,8429 3802,8333 3917,8367 3889,8463 3861,8559 Z"/><path d="M 3774,8429 L 3746,8525 3738,8523 3774,8429 Z"/><path d="M 3738,8523 L 3629,8481 3665,8387 3700,8294 3810,8336 3774,8429 3738,8523 Z"/><path d="M 3665,8387 L 3629,8481 3621,8477 3665,8387 Z"/><path d="M 3621,8477 L 3518,8427 3561,8337 3605,8247 3708,8297 3665,8387 3621,8477 Z"/><path d="M 3561,8337 L 3518,8427 3510,8423 3561,8337 Z"/><path d="M 3510,8423 L 3413,8365 3465,8280 3516,8194 3612,8251 3561,8337 3510,8423 Z"/><path d="M 3465,8280 L 3413,8365 3406,8361 3465,8280 Z"/><path d="M 3406,8361 L 3317,8296 3376,8215 3434,8134 3523,8199 3465,8280 3406,8361 Z"/><path d="M 3376,8215 L 3317,8296 3310,8290 3376,8215 Z"/><path d="M 3310,8290 L 3229,8219 3295,8144 3360,8069 3441,8140 3376,8215 3310,8290 Z"/><path d="M 3295,8144 L 3229,8219 3222,8212 3295,8144 Z"/><path d="M 3222,8212 L 3149,8135 3222,8067 3295,7999 3367,8076 3295,8144 3222,8212 Z"/><path d="M 3222,8067 L 3149,8135 3143,8128 3222,8067 Z"/><path d="M 3143,8128 L 3080,8045 3159,7985 3239,7924 3302,8006 3222,8067 3143,8128 Z"/><path d="M 3159,7985 L 3080,8045 3074,8036 3159,7985 Z"/><path d="M 3074,8036 L 3021,7949 3107,7897 3192,7845 3245,7933 3159,7985 3074,8036 Z"/><path d="M 3107,7897 L 3021,7949 3016,7939 3107,7897 Z"/><path d="M 3016,7939 L 2974,7847 3064,7805 3155,7764 3197,7855 3107,7897 3016,7939 Z"/><path d="M 3064,7805 L 2974,7847 2969,7836 3064,7805 Z"/><path d="M 2969,7836 L 2938,7740 3034,7709 3129,7679 3160,7775 3064,7805 2969,7836 Z"/><path d="M 3034,7709 L 2938,7740 2935,7728 3034,7709 Z"/><path d="M 2935,7728 L 2916,7629 3014,7610 3113,7591 3132,7691 3034,7709 2935,7728 Z"/><path d="M 3014,7610 L 2916,7629 2915,7617 3014,7610 Z"/><path d="M 2915,7617 L 2908,7514 3008,7508 3108,7502 3114,7604 3014,7610 2915,7617 Z"/><path d="M 3008,7508 L 2908,7514 2908,7502 3008,7508 Z"/><path d="M 2908,7502 L 2915,7399 3014,7406 3114,7412 3108,7514 3008,7508 2908,7502 Z"/><path d="M 3014,7406 L 2915,7399 2916,7387 3014,7406 Z"/><path d="M 2916,7387 L 2935,7288 3034,7307 3132,7325 3113,7425 3014,7406 2916,7387 Z"/><path d="M 3034,7307 L 2935,7288 2938,7276 3034,7307 Z"/><path d="M 2938,7276 L 2969,7180 3064,7211 3160,7241 3129,7337 3034,7307 2938,7276 Z"/><path d="M 3064,7211 L 2969,7180 2974,7169 3064,7211 Z"/><path d="M 2974,7169 L 3016,7077 3107,7119 3197,7161 3155,7252 3064,7211 2974,7169 Z"/><path d="M 3107,7119 L 3016,7077 3021,7067 3107,7119 Z"/><path d="M 3021,7067 L 3074,6980 3159,7031 3245,7083 3192,7171 3107,7119 3021,7067 Z"/><path d="M 3159,7031 L 3074,6980 3080,6971 3159,7031 Z"/><path d="M 3080,6971 L 3143,6888 3222,6949 3302,7010 3239,7092 3159,7031 3080,6971 Z"/><path d="M 3222,6949 L 3143,6888 3149,6881 3222,6949 Z"/><path d="M 3149,6881 L 3222,6804 3295,6872 3367,6940 3295,7017 3222,6949 3149,6881 Z"/><path d="M 3295,6872 L 3222,6804 3229,6797 3295,6872 Z"/><path d="M 3229,6797 L 3310,6726 3376,6801 3441,6876 3360,6947 3295,6872 3229,6797 Z"/><path d="M 3376,6801 L 3310,6726 3317,6720 3376,6801 Z"/><path d="M 3317,6720 L 3406,6655 3465,6736 3523,6817 3434,6882 3376,6801 3317,6720 Z"/><path d="M 3465,6736 L 3406,6655 3413,6651 3465,6736 Z"/><path d="M 3413,6651 L 3510,6593 3561,6679 3612,6765 3516,6822 3465,6736 3413,6651 Z"/><path d="M 3561,6679 L 3510,6593 3518,6589 3561,6679 Z"/><path d="M 3518,6589 L 3621,6539 3665,6629 3708,6719 3605,6769 3561,6679 3518,6589 Z"/><path d="M 3665,6629 L 3621,6539 3629,6535 3665,6629 Z"/><path d="M 3629,6535 L 3738,6493 3774,6587 3810,6680 3700,6722 3665,6629 3629,6535 Z"/><path d="M 3774,6587 L 3738,6493 3746,6491 3774,6587 Z"/><path d="M 3746,6491 L 3861,6457 3889,6553 3917,6649 3802,6683 3774,6587 3746,6491 Z"/><path d="M 3889,6553 L 3861,6457 3869,6455 3889,6553 Z"/><path d="M 3869,6455 L 3989,6430 4009,6528 4030,6626 3909,6651 3889,6553 3869,6455 Z"/><path d="M 4009,6528 L 3989,6430 3997,6429 4009,6528 Z"/><path d="M 3997,6429 L 4122,6414 4134,6513 4146,6612 4022,6628 4009,6528 3997,6429 Z"/><path d="M 4134,6513 L 4122,6414 4130,6413 4134,6513 Z"/><path d="M 4130,6413 L 4258,6408 4262,6508 4266,6608 4138,6613 4134,6513 4130,6413 Z"/><path d="M 4262,6508 L 4258,6408 4266,6408 4262,6508 Z"/><path d="M 4266,6408 L 4394,6413 4390,6513 4386,6613 4258,6608 4262,6508 4266,6408 Z"/><path d="M 4390,6513 L 4394,6413 4402,6414 4390,6513 Z"/><path d="M 4402,6414 L 4527,6429 4515,6528 4502,6628 4378,6612 4390,6513 4402,6414 Z"/><path d="M 4515,6528 L 4527,6429 4535,6430 4515,6528 Z"/><path d="M 4535,6430 L 4655,6455 4635,6553 4615,6651 4494,6626 4515,6528 4535,6430 Z"/><path d="M 4635,6553 L 4655,6455 4663,6457 4635,6553 Z"/><path d="M 4663,6457 L 4778,6491 4750,6587 4722,6683 4607,6649 4635,6553 4663,6457 Z"/><path d="M 4750,6587 L 4778,6491 4786,6493 4750,6587 Z"/><path d="M 4786,6493 L 4895,6535 4859,6629 4824,6722 4714,6680 4750,6587 4786,6493 Z"/><path d="M 4859,6629 L 4895,6535 4903,6539 4859,6629 Z"/><path d="M 4903,6539 L 5006,6589 4963,6679 4919,6769 4816,6719 4859,6629 4903,6539 Z"/><path d="M 4963,6679 L 5006,6589 5014,6593 4963,6679 Z"/><path d="M 5014,6593 L 5111,6651 5059,6736 5008,6822 4912,6765 4963,6679 5014,6593 Z"/><path d="M 5059,6736 L 5111,6651 5118,6655 5059,6736 Z"/><path d="M 5118,6655 L 5207,6720 5149,6801 5090,6882 5001,6817 5059,6736 5118,6655 Z"/><path d="M 5149,6801 L 5207,6720 5214,6726 5149,6801 Z"/><path d="M 5214,6726 L 5295,6797 5229,6872 5164,6947 5083,6876 5149,6801 5214,6726 Z"/><path d="M 5229,6872 L 5295,6797 5302,6804 5229,6872 Z"/><path d="M 5302,6804 L 5375,6881 5302,6949 5229,7017 5157,6940 5229,6872 5302,6804 Z"/><path d="M 5302,6949 L 5375,6881 5381,6888 5302,6949 Z"/><path d="M 5381,6888 L 5444,6971 5365,7031 5285,7092 5222,7010 5302,6949 5381,6888 Z"/><path d="M 5365,7031 L 5444,6971 5450,6980 5365,7031 Z"/><path d="M 5450,6980 L 5503,7067 5417,7119 5332,7171 5279,7083 5365,7031 5450,6980 Z"/><path d="M 5417,7119 L 5503,7067 5508,7077 5417,7119 Z"/><path d="M 5508,7077 L 5550,7169 5460,7211 5369,7252 5327,7161 5417,7119 5508,7077 Z"/><path d="M 5460,7211 L 5550,7169 5555,7180 5460,7211 Z"/><path d="M 5555,7180 L 5586,7276 5491,7307 5395,7337 5364,7241 5460,7211 5555,7180 Z"/><path d="M 5491,7307 L 5586,7276 5589,7288 5491,7307 Z"/><path d="M 5589,7288 L 5608,7387 5510,7406 5411,7425 5392,7325 5491,7307 5589,7288 Z"/><path d="M 5510,7406 L 5608,7387 5609,7399 5510,7406 Z"/><path d="M 5609,7399 L 5616,7502 5516,7508 5416,7514 5410,7412 5510,7406 5609,7399 Z"/><path d="M 5516,7508 L 5616,7502 5616,7514 5516,7508 Z"/><path d="M 5616,7514 L 5609,7617 5510,7610 5410,7604 5416,7502 5516,7508 5616,7514 Z"/><path d="M 5510,7610 L 5609,7617 5608,7629 5510,7610 Z"/><path d="M 5608,7629 L 5589,7728 5491,7709 5392,7691 5411,7591 5510,7610 5608,7629 Z"/><path d="M 5491,7709 L 5589,7728 5586,7740 5491,7709 Z"/><path d="M 5586,7740 L 5555,7836 5460,7805 5364,7775 5395,7679 5491,7709 5586,7740 Z"/><path d="M 5460,7805 L 5555,7836 5550,7847 5460,7805 Z"/><path d="M 5550,7847 L 5508,7939 5417,7897 5327,7855 5369,7764 5460,7805 5550,7847 Z"/><path d="M 5417,7897 L 5508,7939 5503,7949 5417,7897 Z"/><path d="M 5503,7949 L 5450,8036 5365,7985 5279,7933 5332,7845 5417,7897 5503,7949 Z"/><path d="M 5365,7985 L 5450,8036 5444,8045 5365,7985 Z"/><path d="M 5444,8045 L 5381,8128 5302,8067 5222,8006 5285,7924 5365,7985 5444,8045 Z"/><path d="M 5302,8067 L 5381,8128 5375,8135 5302,8067 Z"/><path d="M 5375,8135 L 5302,8212 5229,8144 5157,8076 5229,7999 5302,8067 5375,8135 Z"/><path d="M 5229,8144 L 5302,8212 5295,8219 5229,8144 Z"/><path d="M 5295,8219 L 5214,8290 5149,8215 5083,8140 5164,8069 5229,8144 5295,8219 Z"/><path d="M 5149,8215 L 5214,8290 5207,8296 5149,8215 Z"/><path d="M 5207,8296 L 5118,8361 5059,8280 5001,8199 5090,8134 5149,8215 5207,8296 Z"/><path d="M 5059,8280 L 5118,8361 5111,8365 5059,8280 Z"/><path d="M 5111,8365 L 5014,8423 4963,8337 4912,8251 5008,8194 5059,8280 5111,8365 Z"/><path d="M 4963,8337 L 5014,8423 5006,8427 4963,8337 Z"/><path d="M 5006,8427 L 4903,8477 4859,8387 4816,8297 4919,8247 4963,8337 5006,8427 Z"/><path d="M 4859,8387 L 4903,8477 4895,8481 4859,8387 Z"/><path d="M 4895,8481 L 4786,8523 4750,8429 4714,8336 4824,8294 4859,8387 4895,8481 Z"/><path d="M 4750,8429 L 4786,8523 4778,8525 4750,8429 Z"/><path d="M 4778,8525 L 4663,8559 4635,8463 4607,8367 4722,8333 4750,8429 4778,8525 Z"/><path d="M 4635,8463 L 4663,8559 4655,8561 4635,8463 Z"/><path d="M 4655,8561 L 4535,8586 4515,8488 4494,8390 4615,8365 4635,8463 4655,8561 Z"/><path d="M 4515,8488 L 4535,8586 4527,8587 4515,8488 Z"/><path d="M 4527,8587 L 4402,8602 4390,8503 4378,8404 4502,8388 4515,8488 4527,8587 Z"/><path d="M 4390,8503 L 4402,8602 4394,8603 4390,8503 Z"/><path d="M 4394,8603 L 4266,8608 4262,8508 4258,8408 4386,8403 4390,8503 4394,8603 Z"/><path d="M 4262,8508 L 4266,8608 4258,8608 4262,8508 Z"/></g><g/></g></g><g><desc>Drawing</desc><g><g style="stroke:none;fill:rgb(153,204,255)"><path d="M 12008,12258 L 12005,12169 11996,12081 11982,11993 11962,11906 11936,11819 11905,11734 11868,11650 11826,11568 11778,11487 11725,11409 11667,11332 11605,11258 11537,11187 11465,11118 11389,11052 11308,10990 11224,10930 11135,10874 11043,10822 10948,10773 10850,10728 10749,10687 10645,10650 10539,10617 10432,10588 10322,10564 10211,10544 10099,10528 9986,10517 9872,10510 9758,10508 9758,10508 9644,10510 9530,10517 9417,10528 9305,10544 9194,10564 9084,10588 8977,10617 8871,10650 8767,10687 8666,10728 8568,10773 8473,10822 8381,10874 8292,10930 8208,10990 8127,11052 8051,11118 7979,11187 7911,11258 7849,11332 7791,11409 7738,11487 7690,11568 7648,11650 7611,11734 7580,11819 7554,11906 7534,11993 7520,12081 7511,12169 7508,12258 7508,12258 7511,12347 7520,12435 7534,12523 7554,12610 7580,12697 7611,12782 7648,12866 7690,12948 7738,13029 7791,13107 7849,13184 7911,13258 7979,13329 8051,13398 8127,13464 8208,13526 8292,13586 8381,13642 8473,13694 8568,13743 8666,13788 8767,13829 8871,13866 8977,13899 9084,13928 9194,13952 9305,13972 9417,13988 9530,13999 9644,14006 9758,14008 9758,14008 9872,14006 9986,13999 10099,13988 10211,13972 10322,13952 10432,13928 10539,13899 10645,13866 10749,13829 10850,13788 10948,13743 11043,13694 11135,13642 11224,13586 11308,13526 11389,13464 11465,13398 11537,13329 11605,13258 11667,13184 11725,13107 11778,13029 11826,12948 11868,12866 11905,12782 11936,12697 11962,12610 11982,12523 11996,12435 12005,12347 12008,12258 Z"/></g><g style="stroke:rgb(0,0,0);fill:none"><path style="fill:none" d="M 9758,14008 L 9528,13999 9305,13972 9089,13929 8882,13870 8686,13797 8500,13709 8327,13608 8167,13495 8022,13371 7892,13236 7780,13092 7685,12939 7609,12778 7554,12611 7520,12437 7508,12258 7520,12079 7554,11905 7609,11738 7685,11577 7780,11424 7892,11280 8022,11145 8167,11021 8327,10908 8500,10807 8686,10719 8882,10646 9089,10587 9305,10544 9528,10517 9758,10508 9988,10517 10211,10544 10427,10587 10634,10646 10830,10719 11016,10807 11189,10908 11349,11021 11494,11145 11624,11280 11736,11424 11831,11577 11907,11738 11962,11905 11996,12079 12008,12258 11996,12437 11962,12611 11907,12778 11831,12939 11736,13092 11624,13236 11494,13371 11349,13495 11189,13608 11016,13709 10830,13797 10634,13870 10427,13929 10211,13972 9988,13999 9758,14008"/></g><g/></g></g><g><desc>Drawing</desc><g><g style="stroke:none;fill:rgb(153,204,255)"><path d="M 9393,1363 L 10644,3113 9393,4864 8143,3113 9393,1363 Z"/></g><g style="stroke:rgb(0,0,0);fill:none"><path style="fill:none" d="M 9393,1363 L 10644,3113 9393,4864 8143,3113 9393,1363"/></g><g/></g></g><g><desc>Drawing</desc><g><g style="stroke:none;fill:rgb(153,204,255)"><path d="M 16534,6008 L 16234,6018 15953,6048 15697,6094 15474,6156 15377,6191 15289,6230 15213,6271 15150,6315 15098,6360 15078,6384 15061,6408 15048,6433 15038,6457 15032,6483 15030,6508 15030,9508 15032,9533 15038,9559 15048,9583 15061,9608 15078,9632 15098,9656 15150,9701 15213,9745 15289,9786 15377,9825 15474,9860 15697,9922 15953,9968 16234,9998 16534,10008 16834,9998 17116,9968 17371,9922 17594,9860 17692,9825 17779,9786 17855,9745 17919,9701 17970,9656 17991,9632 18008,9608 18021,9583 18031,9559 18037,9533 18039,9508 18039,6508 18037,6483 18031,6457 18021,6433 18008,6408 17991,6384 17970,6360 17919,6315 17855,6271 17779,6230 17692,6191 17594,6156 17371,6094 17116,6048 16834,6018 16534,6008 Z"/></g><g style="stroke:rgb(0,0,0);fill:none"><path style="fill:none" d="M 16534,6008 L 16234,6018 15953,6048 15697,6094 15474,6156 15377,6191 15289,6230 15213,6271 15150,6315 15098,6360 15078,6384 15061,6408 15048,6433 15038,6457 15032,6483 15030,6508 15030,9508 15032,9533 15038,9559 15048,9583 15061,9608 15078,9632 15098,9656 15150,9701 15213,9745 15289,9786 15377,9825 15474,9860 15697,9922 15953,9968 16234,9998 16534,10008 16834,9998 17116,9968 17371,9922 17594,9860 17692,9825 17779,9786 17855,9745 17919,9701 17970,9656 17991,9632 18008,9608 18021,9583 18031,9559 18037,9533 18039,9508 18039,6508 18037,6483 18031,6457 18021,6433 18008,6408 17991,6384 17970,6360 17919,6315 17855,6271 17779,6230 17692,6191 17594,6156 17371,6094 17116,6048 16834,6018 16534,6008"/></g><g style="stroke:none;fill:rgb(167,223,255)"><path d="M 16534,6008 L 16234,6018 15953,6048 15697,6094 15474,6156 15377,6191 15289,6230 15213,6271 15150,6315 15098,6360 15078,6384 15061,6408 15048,6433 15038,6457 15032,6483 15030,6508 15032,6533 15038,6558 15048,6583 15061,6608 15078,6632 15098,6655 15150,6701 15213,6744 15289,6786 15377,6824 15474,6860 15697,6922 15953,6968 16234,6998 16534,7008 16834,6998 17116,6968 17371,6922 17594,6860 17692,6824 17779,6786 17855,6744 17919,6701 17970,6655 17991,6632 18008,6608 18021,6583 18031,6558 18037,6533 18039,6508 18037,6483 18031,6457 18021,6433 18008,6408 17991,6384 17970,6360 17919,6315 17855,6271 17779,6230 17692,6191 17594,6156 17371,6094 17116,6048 16834,6018 16534,6008 Z"/></g><g style="stroke:rgb(0,0,0);fill:none"><path style="fill:none" d="M 16534,6008 L 16234,6018 15953,6048 15697,6094 15474,6156 15377,6191 15289,6230 15213,6271 15150,6315 15098,6360 15078,6384 15061,6408 15048,6433 15038,6457 15032,6483 15030,6508 15032,6533 15038,6558 15048,6583 15061,6608 15078,6632 15098,6655 15150,6701 15213,6744 15289,6786 15377,6824 15474,6860 15697,6922 15953,6968 16234,6998 16534,7008 16834,6998 17116,6968 17371,6922 17594,6860 17692,6824 17779,6786 17855,6744 17919,6701 17970,6655 17991,6632 18008,6608 18021,6583 18031,6558 18037,6533 18039,6508 18037,6483 18031,6457 18021,6433 18008,6408 17991,6384 17970,6360 17919,6315 17855,6271 17779,6230 17692,6191 17594,6156 17371,6094 17116,6048 16834,6018 16534,6008"/></g><g/></g></g></g></g></svg>